# xmcd CD database file generated by OrangeCD 6.4
#
# Track frame offsets:
#	150
#	16502
#	30303
#	52935
#	65801
#	80839
#	97131
#	118855
#	140559
#	160745
#	176784
#
# Disc length: 2571 seconds
#
# Revision: 1
# Processed by: cddbd v1.5.2PL0 Copyright (c) Steve Scherf et al.
# Submitted via: OrangeCD 6.4
#
DISCID=910a090b
DTITLE=Marek Makaron Motyka - Bez owijania w bawelnê
DYEAR=2011
DGENRE=Blues
TTITLE0=Kiej na mojej jo mataczce
TTITLE1=Chocbys mnie ty panie zabil
TTITLE2=Fajne zycie mioles
TTITLE3=Gitar rag
TTITLE4=Tato
TTITLE5=Kiej na mojej jo mataczce
TTITLE6=Lopata, kilof i helmisko
TTITLE7=Nie bana jo panu sluzyc
TTITLE8=Po placu lazila
TTITLE9=Pudlerka
TTITLE10=Skarga umierajaca
EXTD=
EXTT0=
EXTT1=
EXTT2=
EXTT3=
EXTT4=
EXTT5=
EXTT6=
EXTT7=
EXTT8=
EXTT9=
EXTT10=
PLAYORDER=
